<?xml version="1.0" encoding="UTF-8" standalone="no"?>
<!-- Created with Inkscape (http://www.inkscape.org/) -->

<svg
   xmlns:dc="http://purl.org/dc/elements/1.1/"
   xmlns:cc="http://creativecommons.org/ns#"
   xmlns:rdf="http://www.w3.org/1999/02/22-rdf-syntax-ns#"
   xmlns:svg="http://www.w3.org/2000/svg"
   xmlns="http://www.w3.org/2000/svg"
   version="1.1"
   width="100%"
   height="100%"
   viewBox="0 0 46.651 46.651"
   id="Capa_1"
   xml:space="preserve"><metadata
     id="metadata123"><rdf:RDF><cc:Work
         rdf:about=""><dc:format>image/svg+xml</dc:format><dc:type
           rdf:resource="http://purl.org/dc/dcmitype/StillImage" /><dc:title></dc:title></cc:Work></rdf:RDF></metadata><defs
     id="defs121" /><g
     id="g3"><g
       id="g5"><g
         id="g7"><g
           id="g9"><g
             id="g11"><polygon
               points="15.235,12.475 13.885,0.151 15.249,0 16.467,11.1 30.313,11.1 31.53,0.002 32.896,0.151 31.552,12.475 "
               id="polygon13"
               style="fill:#030104" /></g></g></g><g
         id="g15"><g
           id="g17"><g
             id="g19"><rect
               width="16.693001"
               height="2.26"
               x="15.043"
               y="6.085"
               id="rect21"
               style="fill:#030104" /></g></g></g><g
         id="g23"><g
           id="g25"><g
             id="g27"><rect
               width="17.375"
               height="2.2579999"
               x="15.043"
               y="1.687"
               id="rect29"
               style="fill:#030104" /></g></g></g><g
         id="g31"><g
           id="g33"><g
             id="g35"><g
               id="g37"><path
                 d="m 28.737,33.021 v 4.181 h 9.678 v -26.7 H 8.365 v 26.699 h 9.68 V 33.02 l 10.692,10e-4 0,0 z m 3.349,0.193 c -1.528,0 -2.765,-1.235 -2.765,-2.763 0,-1.524 1.236,-2.764 2.765,-2.764 1.525,0 2.767,1.237 2.767,2.764 -0.002,1.528 -1.242,2.763 -2.767,2.763 z M 23.951,13.437 H 36.63 V 21.02 H 23.951 v -7.583 z m -13.796,0 H 22.829 V 21.02 H 10.155 v -7.583 z m 4.905,19.562 c -1.528,0 -2.766,-1.239 -2.766,-2.764 0,-1.526 1.237,-2.764 2.766,-2.764 1.524,0 2.762,1.236 2.762,2.764 0,1.525 -1.237,2.764 -2.762,2.764 z"
                 id="path39"
                 style="fill:#030104" /></g></g></g><g
           id="g41"><g
             id="g43"><g
               id="g45"><polygon
                 points="28.737,41.387 18.045,41.387 18.045,38.737 6.612,38.737 6.612,42.158 40.166,42.158 40.166,38.737 28.737,38.737 "
                 id="polygon47"
                 style="fill:#030104" /></g></g></g><g
           id="g49"><g
             id="g51"><g
               id="g53"><rect
                 width="10.692"
                 height="1.536"
                 x="18.045"
                 y="37.201"
                 id="rect55"
                 style="fill:#030104" /></g></g></g></g><g
         id="g57"><g
           id="g59"><g
             id="g61"><rect
               width="4.8400002"
               height="4.493"
               x="8.3640003"
               y="42.158001"
               id="rect63"
               style="fill:#030104" /></g></g></g><g
         id="g65"><g
           id="g67"><g
             id="g69"><rect
               width="4.8369999"
               height="4.493"
               x="33.577999"
               y="42.158001"
               id="rect71"
               style="fill:#030104" /></g></g></g><g
         id="g73"><g
           id="g75"><g
             id="g77"><rect
               width="4.0209999"
               height="7.4710002"
               x="39.215"
               y="17.228001"
               id="rect79"
               style="fill:#030104" /></g></g></g><g
         id="g81"><g
           id="g83"><g
             id="g85"><rect
               width="4.0209999"
               height="7.4710002"
               x="3.414"
               y="17.228001"
               id="rect87"
               style="fill:#030104" /></g></g></g></g></g><g
     id="g89" /><g
     id="g91" /><g
     id="g93" /><g
     id="g95" /><g
     id="g97" /><g
     id="g99" /><g
     id="g101" /><g
     id="g103" /><g
     id="g105" /><g
     id="g107" /><g
     id="g109" /><g
     id="g111" /><g
     id="g113" /><g
     id="g115" /><g
     id="g117" /></svg>