<?xml version="1.0" encoding="UTF-8" standalone="no"?>
<!-- Created with Inkscape (http://www.inkscape.org/) -->

<svg
   xmlns:dc="http://purl.org/dc/elements/1.1/"
   xmlns:cc="http://creativecommons.org/ns#"
   xmlns:rdf="http://www.w3.org/1999/02/22-rdf-syntax-ns#"
   xmlns:svg="http://www.w3.org/2000/svg"
   xmlns="http://www.w3.org/2000/svg"
   version="1.0"
   width="211.56"
   height="211.56"
   id="svg4313">
  <metadata
     id="metadata20">
    <rdf:RDF>
      <cc:Work
         rdf:about="">
        <dc:format>image/svg+xml</dc:format>
        <dc:type
           rdf:resource="http://purl.org/dc/dcmitype/StillImage" />
        <dc:title></dc:title>
      </cc:Work>
    </rdf:RDF>
  </metadata>
  <defs
     id="defs4315" />
  <path
     d="m 202.09356,-0.00139893 c 0,0 0,98.46230993 0,98.46230993 -1.3084,42.390029 -26.0564,83.613389 -65.6181,102.457349 -10.0759,4.63145 -20.6471,8.27296 -31.7482,10.64174 C 78.388061,204.80727 53.498561,191.72612 35.326261,168.78102 16.02266,144.88138 8.5627604,115.0068 9.5527604,82.940271 c 0,0 0,-82.94166993 0,-82.94166993 l 192.5407996,0 z"
     id="path11486"
     style="fill:#000000;fill-rule:nonzero;stroke:none" />
  <path
     d="m 16.576875,7.021461 c 0,0 0.906249,83.71875 0.90625,83.71875 0.7427,27.081559 7.020551,51.798669 23.53125,72.374999 16.6165,21.99049 40.1953,33.7053 64.624995,40.28125 13.3994,-3.92437 26.63324,-8.19076 38.40625,-15.96875 30.8645,-19.62178 48.05521,-52.65372 50,-87.937499 0,0 0.9375,-92.46875 0.9375,-92.46875 l -178.406245,0 z m 165.406245,5.53125 7.28125,0.03125 c 0,10e-7 -0.0312,76.0625 -0.0312,76.0625 0.8841,40.339499 -18.36605,78.579629 -54.78125,97.812499 -9.05071,5.02032 -18.8968,8.49645 -28.9375,11.21875 -24.217495,-6.08097 -46.594445,-19.54232 -62.468745,-41.25 -12.904452,-17.67725 -18.9081,-38.13542 -19.9688,-60.656249 -1e-6,0 0,-83.03125 0,-83.03125 l 0,-0.15625 104.499995,0 54.40625,-0.03125 z"
     id="path11494"
     style="fill:#ffffff;fill-rule:nonzero;stroke:none" />
  <path
     d="m 105.7624,56.424411 c 0,0 25.915,-24.85425 25.915,-24.85425 -3.4649,8.98004 -25.7029,63.35531 -25.7029,63.35531 0,0 -25.8443,-63.74419 -25.8443,-63.74419 m 25.7736,63.77954 c -1.5201,0.70708 -60.1732,23.899639 -63.0017,24.995629 7.8135,-8.2376 16.44,-16.36914 24.3945,-24.924919 0,0 -23.5108,-25.31384 -23.5108,-25.31384 0,0 62.118,25.24313 62.118,25.24313 z m 62.4361,-24.74818 c -0.071,0.10607 -15.4852,16.86409 -23.4401,24.74818 0,0 23.7581,24.323909 23.7581,24.323909 -2.3687,-0.42427 -62.5775,-24.323909 -62.5775,-24.323909 0,0 59.5373,-23.89967 62.2595,-24.74818 m -37.5817,87.891309 c -4.1721,-3.5708 -16.3693,-16.75802 -24.7837,-24.64207 -8.7679,8.06083 -17.0408,17.57118 -25.9501,24.96028 0.7778,-2.61623 25.9501,-63.390629 25.9501,-63.390629 2.97,6.646629 23.9703,60.350119 24.7837,63.072419"
     id="path11502"
     style="fill:#ffffff;fill-rule:nonzero;stroke:none" />
</svg>
