<?xml version="1.0" encoding="UTF-8" standalone="no"?>
<!-- Created with Inkscape (http://www.inkscape.org/) -->

<svg
   xmlns:dc="http://purl.org/dc/elements/1.1/"
   xmlns:cc="http://creativecommons.org/ns#"
   xmlns:rdf="http://www.w3.org/1999/02/22-rdf-syntax-ns#"
   xmlns:svg="http://www.w3.org/2000/svg"
   xmlns="http://www.w3.org/2000/svg"
   version="1.1"
   width="73.414001"
   height="73.414001"
   viewBox="0 0 73.414 73.414"
   id="Capa_1"
   xml:space="preserve"><metadata
     id="metadata41"><rdf:RDF><cc:Work
         rdf:about=""><dc:format>image/svg+xml</dc:format><dc:type
           rdf:resource="http://purl.org/dc/dcmitype/StillImage" /><dc:title></dc:title></cc:Work></rdf:RDF></metadata><defs
     id="defs39" /><g
     id="g3"><path
       d="m 30.12,13.448 -3.911,-3.91 1.651,-1.651 3.911,3.91 -1.651,1.651 z m 12.31,2.78 c -0.426,-2.798 -2.812,-4.949 -5.723,-4.949 -2.916,0 -5.305,2.151 -5.723,4.949 H 42.43 z m 4.774,-6.402 -1.651,-1.651 -3.909,3.91 1.651,1.651 3.909,-3.91 z M 37.875,4.425 h -2.336 v 5.528 h 2.336 V 4.425 z m 35.539,43.801 c 0,4.544 -1.494,8.613 -4.389,11.374 v 9.389 H 57.345 V 63.282 H 16.068 v 5.707 H 4.389 V 59.6 C 1.494,56.839 0,52.77 0,48.226 0,42.304 2.523,37.2 7.388,34.742 8.731,24.813 14.204,17.576 20.954,17.576 h 31.511 c 6.747,0 12.217,7.237 13.562,17.168 4.864,2.456 7.387,7.558 7.387,13.482 z M 11.176,33.461 c 1.021,-0.188 2.101,-0.292 3.256,-0.292 h 30.54 c 0,-4.132 3.359,-7.493 7.493,-7.493 4.133,0 7.493,3.361 7.493,7.496 0,0.015 -0.005,0.028 -0.005,0.042 0.792,0.042 1.561,0.115 2.283,0.25 C 60.79,26.34 56.908,21.078 52.465,21.078 H 20.954 c -4.442,-10e-4 -8.332,5.261 -9.778,12.383 z m 41.289,-5.452 c -2.847,0 -5.158,2.315 -5.158,5.157 h 10.315 c 0,-2.841 -2.313,-5.157 -5.157,-5.157 z M 17.579,48.226 c 0,-2.7 -2.191,-4.895 -4.896,-4.895 -2.697,0 -4.891,2.191 -4.891,4.895 0,2.706 2.191,4.891 4.891,4.891 2.703,-0.002 4.896,-2.19 4.896,-4.891 z m 34.505,2.85 c 0,-0.642 -0.522,-1.168 -1.168,-1.168 H 22.498 c -0.644,0 -1.168,0.526 -1.168,1.168 0,0.647 0.524,1.168 1.168,1.168 h 28.418 c 0.646,0 1.168,-0.519 1.168,-1.168 z m 0,-4.284 c 0,-0.641 -0.522,-1.168 -1.168,-1.168 H 22.498 c -0.644,0 -1.168,0.527 -1.168,1.168 0,0.646 0.524,1.168 1.168,1.168 h 28.418 c 0.646,-10e-4 1.168,-0.518 1.168,-1.168 z m 13.538,1.434 c 0,-2.7 -2.19,-4.895 -4.891,-4.895 -2.703,0 -4.896,2.191 -4.896,4.895 0,2.706 2.189,4.891 4.896,4.891 2.697,-0.002 4.891,-2.19 4.891,-4.891 z"
       id="path5" /></g><g
     id="g7" /><g
     id="g9" /><g
     id="g11" /><g
     id="g13" /><g
     id="g15" /><g
     id="g17" /><g
     id="g19" /><g
     id="g21" /><g
     id="g23" /><g
     id="g25" /><g
     id="g27" /><g
     id="g29" /><g
     id="g31" /><g
     id="g33" /><g
     id="g35" /></svg>