<?xml version="1.0" encoding="UTF-8" standalone="no"?>
<!-- Created with Inkscape (http://www.inkscape.org/) -->

<svg
   xmlns:dc="http://purl.org/dc/elements/1.1/"
   xmlns:cc="http://creativecommons.org/ns#"
   xmlns:rdf="http://www.w3.org/1999/02/22-rdf-syntax-ns#"
   xmlns:svg="http://www.w3.org/2000/svg"
   xmlns="http://www.w3.org/2000/svg"
   version="1.1"
   width="406.54999"
   height="406.54999"
   viewBox="0 0 406.55 406.55"
   id="Capa_1"
   xml:space="preserve"><metadata
     id="metadata57"><rdf:RDF><cc:Work
         rdf:about=""><dc:format>image/svg+xml</dc:format><dc:type
           rdf:resource="http://purl.org/dc/dcmitype/StillImage" /><dc:title></dc:title></cc:Work></rdf:RDF></metadata><defs
     id="defs55" /><g
     id="g3"><g
       id="g5"><polygon
         points="275.398,181.031 275.398,203.801 253.097,203.801 253.097,221.939 275.398,221.939 275.398,244.708 293.548,244.708 293.548,221.939 316.775,221.939 316.775,203.801 293.548,203.801 293.548,181.031 "
         id="polygon7" /><path
         d="m 69.539,299.125 c 19.694,0 35.656,15.962 35.656,35.654 0,19.696 -15.961,35.658 -35.656,35.658 -19.69,0 -35.656,-15.962 -35.656,-35.658 0,-19.692 15.966,-35.654 35.656,-35.654 z"
         id="path9" /><path
         d="m 320.594,299.125 c 19.693,0 35.654,15.962 35.654,35.654 0,19.696 -15.961,35.658 -35.654,35.658 -19.688,0 -35.658,-15.962 -35.658,-35.658 0,-19.692 15.969,-35.654 35.658,-35.654 z"
         id="path11" /><path
         d="m 106.82,61.615 c -1.978,-0.892 -4.3,-0.014 -5.194,1.956 -0.898,1.97 -0.018,4.304 1.956,5.19 l 33.029,14.981 c 0.529,0.233 1.078,0.353 1.619,0.353 1.495,0 2.919,-0.856 3.581,-2.309 0.896,-1.97 0.022,-4.302 -1.956,-5.189 L 106.82,61.615 z"
         id="path13" /><path
         d="m 161.099,70.708 c 0.95,0 1.901,-0.337 2.653,-1.034 1.601,-1.469 1.705,-3.941 0.245,-5.544 l -24.51,-26.739 c -1.46,-1.591 -3.947,-1.717 -5.55,-0.235 -1.604,1.469 -1.701,3.941 -0.241,5.542 l 24.505,26.738 c 0.778,0.843 1.84,1.272 2.898,1.272 z"
         id="path15" /><path
         d="m 206.535,37.148 c -1.611,-1.475 -4.08,-1.356 -5.549,0.234 l -24.501,26.742 c -1.461,1.601 -1.357,4.082 0.244,5.542 0.751,0.697 1.703,1.034 2.653,1.034 1.058,0 2.12,-0.429 2.897,-1.272 l 24.5,-26.735 c 1.471,-1.604 1.363,-4.076 -0.244,-5.545 z"
         id="path17" /><path
         d="m 195.067,84.095 c 0.541,0 1.094,-0.12 1.619,-0.353 l 33.031,-14.981 c 1.976,-0.886 2.85,-3.22 1.96,-5.19 -0.902,-1.97 -3.219,-2.847 -5.198,-1.956 l -33.037,14.982 c -1.978,0.888 -2.847,3.22 -1.954,5.189 0.666,1.453 2.089,2.309 3.579,2.309 z"
         id="path19" /><path
         d="M 375.14,102.627 H 190.932 c -3.594,-10.744 -13.631,-18.541 -25.593,-18.541 -11.956,0 -21.995,7.796 -25.591,18.541 0,0 -5.895,0 -13.174,0 -7.276,0 -13.17,10.223 -13.17,22.822 v 22.828 c 0,0 -6.869,0 -15.341,0 -8.472,0 -24.533,10.628 -35.886,23.742 L 20.556,220.106 C 9.201,233.223 0,257.901 0,275.246 v 14.21 c 0,17.344 6.51,31.402 14.541,31.402 H 29.08 c 5.446,-17.349 21.664,-29.943 40.823,-29.943 19.154,0 35.364,12.595 40.82,29.943 h 2.687 21.396 145.325 c 5.459,-17.349 21.673,-29.943 40.832,-29.943 19.155,0 35.369,12.595 40.823,29.943 0,0 10.019,0 22.378,0 12.371,0 22.386,-14.059 22.386,-31.402 V 134.014 c -0.009,-17.326 -14.071,-31.387 -31.41,-31.387 z M 114.616,213.959 c 0,8.66 -7.033,15.701 -15.701,15.701 H 63.59 c -8.668,0 -10.864,-5.102 -4.891,-11.393 l 24.509,-25.848 c 5.965,-6.294 15.417,-11.389 21.109,-11.389 5.692,0 10.299,7.035 10.299,15.701 v 17.228 z m 225.651,7.07 h 0.017 l -54.51,53.479 -56.172,-53.479 h 0.016 c -8.548,-7.27 -14.006,-18.086 -14.006,-30.192 0,-21.88 17.737,-39.616 39.617,-39.616 11.839,0 22.442,5.228 29.699,13.473 7.27,-8.245 17.865,-13.473 29.707,-13.473 21.889,0 39.613,17.735 39.613,39.616 0.009,12.115 -5.441,22.93 -13.981,30.192 z"
         id="path21" /></g></g><g
     id="g23" /><g
     id="g25" /><g
     id="g27" /><g
     id="g29" /><g
     id="g31" /><g
     id="g33" /><g
     id="g35" /><g
     id="g37" /><g
     id="g39" /><g
     id="g41" /><g
     id="g43" /><g
     id="g45" /><g
     id="g47" /><g
     id="g49" /><g
     id="g51" /></svg>