<?xml version="1.0" encoding="UTF-8" standalone="no"?>
<!-- Created with Inkscape (http://www.inkscape.org/) -->

<svg
   xmlns:dc="http://purl.org/dc/elements/1.1/"
   xmlns:cc="http://creativecommons.org/ns#"
   xmlns:rdf="http://www.w3.org/1999/02/22-rdf-syntax-ns#"
   xmlns:svg="http://www.w3.org/2000/svg"
   xmlns="http://www.w3.org/2000/svg"
   version="1.1"
   width="100%"
   height="100%"
   viewBox="0 0 445.835 445.835"
   id="Capa_1"
   xml:space="preserve"><metadata
     id="metadata45"><rdf:RDF><cc:Work
         rdf:about=""><dc:format>image/svg+xml</dc:format><dc:type
           rdf:resource="http://purl.org/dc/dcmitype/StillImage" /><dc:title></dc:title></cc:Work></rdf:RDF></metadata><defs
     id="defs43" /><g
     id="g3"><path
       d="m 189.563,191.731 c 0.172,0.11 0.35,0.213 0.531,0.305 2.456,1.252 5.203,1.913 7.947,1.913 5.886,0 11.261,-2.897 14.499,-7.679 l 27.045,-35.231 c 0.153,-0.2 0.295,-0.411 0.423,-0.629 4.866,-8.341 2.043,-19.092 -6.297,-23.967 -2.681,-1.565 -5.732,-2.393 -8.825,-2.393 -6.078,0 -11.763,3.188 -14.934,8.345 l -15.76,20.753 -57.172,-36.906 c -0.043,-0.027 0.043,0.026 0,0 -3.689,-2.628 -8.195,-4.181 -13.061,-4.181 H 78.683 c -2.199,0 -12.305,0.063 -17.741,7.771 l -48.444,65.566 c -0.506,0.684 -0.841,1.44 -1.021,2.22 -0.063,0.208 -0.138,0.41 -0.178,0.629 L 0.123,248.539 c -0.045,0.241 -0.074,0.484 -0.09,0.73 -0.284,4.673 1.27,9.178 4.377,12.683 3.104,3.503 7.387,5.588 12.056,5.87 0.359,0.022 0.718,0.032 1.073,0.032 10e-4,0 10e-4,0 10e-4,0 9.104,0 16.691,-7.02 17.449,-16.056 l 9.37,-50.552 11.754,-15.906 v 223.964 c 0,10.483 8.53,19.012 19.016,19.012 10.482,0 19.01,-8.528 19.01,-19.012 V 282.925 l 14.365,-0.001 v 126.38 c 0,10.483 8.53,19.012 19.016,19.012 10.482,0 19.01,-8.528 19.01,-19.012 V 163.946 l 43.033,27.785 z"
       id="path5" /><path
       d="m 444.441,371.742 -20.626,-24.719 c -1.061,-1.273 -2.603,-2.05 -4.257,-2.147 l -21.34,-1.243 c -4.156,-10.649 -9.811,-17.755 -15.841,-22.472 12.899,-1.362 25.043,-7.427 33.859,-17.216 2.218,-2.463 2.02,-6.256 -0.442,-8.474 -2.463,-2.218 -6.256,-2.021 -8.474,0.442 -8.767,9.734 -21.778,14.705 -34.847,13.309 l -92.596,-12.717 -1.75,-5.689 13.72,-39.084 c 0.815,-2.324 0.129,-4.91 -1.732,-6.522 -1.862,-1.612 -4.522,-1.923 -6.703,-0.785 l -8.53,4.449 0.421,-5.58 c 0.179,-2.379 -1.068,-4.639 -3.177,-5.754 -2.109,-1.118 -4.679,-0.878 -6.545,0.609 l -9.378,7.47 c -2.79,-1.559 -5.963,-2.407 -9.199,-2.407 -3.396,0 -6.674,0.903 -9.541,2.594 l -3.508,-1.602 12.828,-19.736 c 1.807,-2.778 1.018,-6.494 -1.761,-8.3 -2.777,-1.808 -6.494,-1.018 -8.3,1.761 l -13.804,21.237 -5.06,-2.31 c -2.618,-1.192 -5.709,-0.366 -7.377,1.974 -0.695,0.975 -1.062,2.099 -1.11,3.229 -2.164,6.795 -2.509,13.595 -1.277,19.913 l -20.877,32.119 c -1.807,2.778 -1.018,6.494 1.761,8.3 1.01,0.657 2.143,0.971 3.264,0.971 1.963,0 3.887,-0.963 5.036,-2.731 l 16.358,-25.167 c 3.773,5.641 9.153,10.298 15.866,13.372 l 12.118,62.351 -15.385,13.771 c -0.667,0.598 -1.192,1.337 -1.537,2.164 l -17.191,41.284 c -0.771,1.852 -0.565,3.967 0.547,5.636 1.113,1.669 2.986,2.671 4.992,2.671 h 6.389 c 2.199,0 4.223,-1.203 5.273,-3.137 l 16.233,-29.889 8.075,-6.295 6.203,29.622 c 0.354,1.69 1.42,3.147 2.924,3.996 l 32.051,18.091 c 0.927,0.522 1.941,0.774 2.946,0.774 1.742,0 3.455,-0.758 4.629,-2.179 l 3.125,-3.783 c 2.1,-2.542 1.755,-6.303 -0.773,-8.42 l -26.194,-21.95 -3.564,-22.026 c 0.574,-0.057 1.16,-0.122 1.764,-0.201 16.755,-2.196 38.559,-6.598 54.459,-10.036 1.159,2.921 3.259,5.728 6.199,8.382 l 35.426,29.629 -5.506,23.374 c -0.397,1.684 -0.047,3.459 0.96,4.866 1.007,1.408 2.572,2.313 4.295,2.481 l 7.802,0.765 c 0.197,0.02 0.393,0.028 0.589,0.028 2.661,0 5.039,-1.768 5.772,-4.375 l 9.005,-32.016 c 0.478,-1.7 0.183,-3.523 -0.806,-4.986 l -11.7,-17.303 36.272,-7.741 15.977,18.489 c 1.183,1.368 2.855,2.077 4.543,2.077 1.271,0 2.549,-0.401 3.632,-1.226 l 4.422,-3.366 c 1.303,-0.992 2.144,-2.474 2.327,-4.102 0.185,-1.625 -0.304,-3.257 -1.354,-4.514 z"
       id="path7" /><path
       d="m 118.595,104.936 c 24.788,0 44.954,-20.166 44.954,-44.954 0,-24.788 -20.166,-44.954 -44.954,-44.954 -24.788,0 -44.955,20.166 -44.955,44.954 0,24.788 20.166,44.954 44.955,44.954 z"
       id="path9" /></g><g
     id="g11" /><g
     id="g13" /><g
     id="g15" /><g
     id="g17" /><g
     id="g19" /><g
     id="g21" /><g
     id="g23" /><g
     id="g25" /><g
     id="g27" /><g
     id="g29" /><g
     id="g31" /><g
     id="g33" /><g
     id="g35" /><g
     id="g37" /><g
     id="g39" /></svg>