<?xml version="1.0" encoding="UTF-8" standalone="no"?>
<!-- Created with Inkscape (http://www.inkscape.org/) -->

<svg
   xmlns:dc="http://purl.org/dc/elements/1.1/"
   xmlns:cc="http://creativecommons.org/ns#"
   xmlns:rdf="http://www.w3.org/1999/02/22-rdf-syntax-ns#"
   xmlns:svg="http://www.w3.org/2000/svg"
   xmlns="http://www.w3.org/2000/svg"
   version="1.1"
   width="100%"
   height="100%"
   viewBox="0 0 207.425 207.425"
   id="Capa_1"
   xml:space="preserve"><metadata
     id="metadata39"><rdf:RDF><cc:Work
         rdf:about=""><dc:format>image/svg+xml</dc:format><dc:type
           rdf:resource="http://purl.org/dc/dcmitype/StillImage" /><dc:title></dc:title></cc:Work></rdf:RDF></metadata><defs
     id="defs37" /><path
     d="m 32.387,86.533 c 0,2.49 -2.147,4.517 -4.786,4.517 -2.639,0 -4.786,-2.026 -4.786,-4.517 0,-2.491 2.147,-4.518 4.786,-4.518 2.639,0 4.786,2.027 4.786,4.518 z M 207.425,44.168 c 0,2.762 -2.239,5 -5,5 H 129.04 V 64.94 h 6.993 c 5.673,0 10.289,4.615 10.289,10.289 v 3.854 c 0,0.132 -0.015,0.26 -0.02,0.391 7.507,0.436 14.609,2.394 21.018,5.553 0.71,0.138 1.389,0.419 1.982,0.848 0.068,0.049 0.412,0.301 0.935,0.702 16.623,9.474 27.864,27.349 27.864,47.814 v 0.706 c 0,9.045 -7.358,16.403 -16.403,16.403 h -7.245 l 1.392,6.449 c 0.022,0.103 0.019,0.205 0.035,0.308 h 10.489 c 2.761,0 5,2.238 5,5 0,2.762 -2.239,5 -5,5 h -69.287 c -2.761,0 -5,-2.238 -5,-5 0,-2.762 2.239,-5 5,-5 h 9.681 c 0.016,-0.103 0.012,-0.204 0.035,-0.308 l 1.59,-7.366 C 105.637,146.673 86.373,130.466 78.93,108.248 L 49.274,101.975 C 44.349,108.336 36.468,112.466 27.6,112.466 12.714,112.466 0.603,100.832 0.603,86.533 0.603,81.219 2.278,76.274 5.145,72.156 4.956,71.821 4.803,71.464 4.694,71.086 L 0.194,55.468 C -0.241,53.958 0.059,52.332 1.004,51.076 1.95,49.822 3.429,49.084 5,49.084 h 7.576 c 2.002,0 3.811,1.194 4.598,3.035 l 3.949,9.242 c 2.077,-0.493 4.246,-0.76 6.479,-0.76 12.3,0 22.698,7.946 25.942,18.772 h 24.74 C 78.281,79.276 78.269,79.182 78.269,79.084 V 75.23 c 0,-5.674 4.616,-10.289 10.289,-10.289 h 21.538 V 49.168 H 36.71 c -2.761,0 -5,-2.238 -5,-5 0,-2.762 2.239,-5 5,-5 h 78.384 8.945 78.385 c 2.762,0 5.001,2.239 5.001,5 z M 42.387,86.533 c 0,-8.005 -6.633,-14.518 -14.786,-14.518 -8.153,0 -14.786,6.513 -14.786,14.518 0,8.005 6.633,14.517 14.786,14.517 8.153,0 14.786,-6.512 14.786,-14.517 z m 101.533,12.093 4.457,11.061 c 2.423,6.014 8.178,9.899 14.662,9.899 h 20.613 c -1.582,-3.773 -3.817,-8.473 -6.407,-12.105 -3.945,-5.536 -9.974,-10.534 -12.559,-12.556 h -18.267 c -1.246,0 -1.934,0.743 -2.233,1.187 -0.299,0.444 -0.731,1.359 -0.266,2.514 z m -6.958,59.63 h 28.72 l -1.458,-6.757 h -25.189 c -0.205,0 -0.407,-0.01 -0.612,-0.012 l -1.461,6.769 z m -11.361,-58.138 -6.18,0.006 v -6.18 c 0,-3.704 -3.003,-6.707 -6.707,-6.707 h -0.838 c -3.704,0 -6.707,3.003 -6.707,6.707 v 6.193 l -6.193,0.006 c -3.704,0.003 -6.704,3.009 -6.701,6.713 l 10e-4,0.838 c 0.003,3.704 3.009,6.704 6.713,6.701 l 6.18,-0.006 v 6.18 c 0,3.704 3.003,6.707 6.707,6.707 h 0.838 c 3.704,0 6.707,-3.003 6.707,-6.707 v -6.193 l 6.193,-0.006 c 3.704,-0.003 6.704,-3.009 6.701,-6.713 l -0.001,-0.838 c -0.004,-3.704 -3.009,-6.704 -6.713,-6.701 z"
     id="path3" /><g
     id="g5" /><g
     id="g7" /><g
     id="g9" /><g
     id="g11" /><g
     id="g13" /><g
     id="g15" /><g
     id="g17" /><g
     id="g19" /><g
     id="g21" /><g
     id="g23" /><g
     id="g25" /><g
     id="g27" /><g
     id="g29" /><g
     id="g31" /><g
     id="g33" /></svg>